<svg width="384" height="88" viewBox="0 0 384 88" fill="none" xmlns="http://www.w3.org/2000/svg">
<path d="M109.194 54.2237L107.678 59.6764H104.038L113.138 25.5972H116.777L112.986 39.6833C115.261 37.1084 118.294 34.9879 122.085 34.9879C127.545 34.9879 131.64 39.0774 131.64 45.2874C131.64 53.7693 125.119 60.2823 118.142 60.2823C113.289 60.1308 110.559 57.4045 109.194 54.2237ZM128 45.5903C128 41.0465 125.27 38.1687 121.176 38.1687C115.867 38.1687 110.408 43.6213 110.408 49.5284C110.408 53.7694 113.441 57.1015 117.839 57.1015C123.602 56.9501 128 51.6489 128 45.5903Z" fill="#FFFAFB"/>
<path d="M138.161 49.8314C138.161 54.2238 141.043 57.1016 145.441 57.1016C148.626 57.1016 150.749 56.0413 152.872 54.2238L154.692 56.6472C152.265 58.6162 149.384 60.2823 145.137 60.2823C138.768 60.2823 134.37 56.1928 134.37 49.9828C134.37 42.5611 140.284 34.988 148.474 34.988C154.54 34.988 157.877 39.2289 157.877 44.2272C157.877 45.8933 157.573 47.4079 156.967 48.9226H138.161C138.161 49.2255 138.161 49.5284 138.161 49.8314ZM154.237 46.0448C154.389 45.5904 154.389 44.9845 154.389 44.2272C154.389 40.895 152.569 38.0172 148.322 38.0172C143.621 38.0172 139.981 41.6523 138.616 46.0448H154.237V46.0448Z" fill="#FFFAFB"/>
<path d="M161.517 55.284C161.517 54.3752 161.668 53.4664 161.82 52.7091L165.611 38.6231H162.275L163.185 35.4423H166.521L168.493 28.1721H171.981L170.009 35.4423H177.592L176.682 38.6231H169.1L165.308 52.5577C165.156 53.1635 165.156 53.7694 165.156 54.3752C165.156 56.0413 166.37 56.7986 168.493 56.7986C169.555 56.7986 170.616 56.4957 171.981 56.0413L171.071 59.3735C169.858 59.8279 168.645 60.1308 167.28 60.1308C163.943 60.1308 161.517 58.4647 161.517 55.284Z" fill="#FFFAFB"/>
<path d="M176.683 49.377C176.683 41.8038 183.204 34.988 190.939 34.988C197.612 34.988 202.01 39.5319 202.01 45.7419C202.01 53.4665 195.337 60.1308 187.754 60.1308C180.929 60.1308 176.683 55.5869 176.683 49.377ZM198.218 45.8933C198.218 41.0465 195.185 38.1687 190.635 38.1687C185.024 38.1687 180.322 43.6214 180.322 49.2255C180.322 54.0723 183.356 56.9501 187.905 56.9501C193.213 56.9501 198.218 51.6489 198.218 45.8933Z" fill="#FFFAFB"/>
<path d="M204.588 49.6799C204.588 41.8038 211.109 34.988 218.844 34.988C223.849 34.988 226.882 37.7143 228.55 40.5921L225.668 42.4097C224.304 40.1377 222.332 38.1687 218.692 38.1687C213.232 38.1687 208.379 43.4699 208.379 49.5284C208.379 54.2238 211.868 56.9501 215.507 56.9501C218.389 56.9501 220.512 55.7384 222.635 53.7694L224.759 56.0413C222.332 58.3133 219.299 60.1308 215.356 60.1308C209.593 60.1308 204.588 56.3443 204.588 49.6799Z" fill="#FFFAFB"/>
<path d="M226.73 53.4665C226.73 48.0138 231.28 44.6816 237.498 44.6816C240.683 44.6816 243.716 45.2875 245.991 46.0448L246.142 45.4389C246.294 44.8331 246.446 43.9243 246.446 43.3185C246.446 40.2892 244.322 38.4716 239.924 38.4716C237.346 38.4716 235.223 38.926 233.1 39.6834L232.493 36.6541C234.92 35.7453 237.346 35.1395 240.531 35.1395C246.597 35.1395 250.085 38.0173 250.085 42.7126C250.085 43.6214 249.934 44.8331 249.63 46.0448L245.991 59.6765H242.502L243.412 55.8899C241.289 58.4648 238.256 60.1309 234.313 60.1309C230.218 60.1309 226.73 57.7074 226.73 53.4665ZM244.929 50.1343L245.384 48.4682C243.261 47.8624 240.531 47.408 237.498 47.408C233.251 47.408 230.37 49.6799 230.37 53.0121C230.37 55.587 232.341 57.2531 235.526 57.2531C239.469 57.2531 243.716 54.3753 244.929 50.1343Z" fill="#FFFAFB"/>
<path d="M253.877 54.2237L252.361 59.6764H248.721L257.82 25.5972H261.46L257.669 39.6833C259.943 37.1084 262.977 34.9879 266.768 34.9879C272.228 34.9879 276.323 39.0774 276.323 45.2874C276.323 53.7693 269.801 60.2823 262.825 60.2823C257.972 60.1308 255.242 57.4045 253.877 54.2237ZM272.683 45.5903C272.683 41.0465 269.953 38.1687 265.858 38.1687C260.55 38.1687 255.09 43.6213 255.09 49.5284C255.09 53.7694 258.124 57.1015 262.522 57.1015C268.436 56.9501 272.683 51.6489 272.683 45.5903Z" fill="#FFFAFB"/>
<path d="M276.777 53.4665C276.777 48.0138 281.327 44.6816 287.545 44.6816C290.73 44.6816 293.763 45.2875 296.038 46.0448L296.19 45.4389C296.341 44.8331 296.493 43.9243 296.493 43.3185C296.493 40.2892 294.37 38.4716 289.972 38.4716C287.393 38.4716 285.27 38.926 283.147 39.6834L282.54 36.6541C284.967 35.7453 287.393 35.1395 290.578 35.1395C296.645 35.1395 300.133 38.0173 300.133 42.7126C300.133 43.6214 299.981 44.8331 299.678 46.0448L296.038 59.6765H292.55L293.46 55.8899C291.337 58.4648 288.303 60.1309 284.36 60.1309C280.265 60.1309 276.777 57.7074 276.777 53.4665ZM294.976 50.1343L295.431 48.4682C293.308 47.8624 290.578 47.408 287.545 47.408C283.299 47.408 280.417 49.6799 280.417 53.0121C280.417 55.587 282.389 57.2531 285.574 57.2531C289.517 57.2531 293.763 54.3753 294.976 50.1343Z" fill="#FFFAFB"/>
<path d="M302.711 49.377C302.711 40.4406 309.536 34.0792 316.512 34.0792C320.455 34.0792 322.73 35.7453 324.398 38.1687L327.735 25.4458H334.863L325.763 59.525H318.635L319.393 56.7986C317.27 58.7677 315.147 59.9794 312.265 59.9794C306.957 60.1308 302.711 56.1928 302.711 49.377ZM322.882 45.4389C322.882 42.2582 320.607 40.1377 317.573 40.1377C313.782 40.1377 310.142 43.9243 310.142 48.9226C310.142 52.2547 312.265 54.2238 315.45 54.2238C319.242 54.0723 322.882 50.1343 322.882 45.4389Z" fill="#FFFAFB"/>
<path d="M338.199 49.5285C338.502 52.4062 340.171 54.3753 343.962 54.3753C345.782 54.3753 347.45 53.7694 349.573 52.4062L352.91 56.7987C350.635 58.6162 347.602 60.1309 343.204 60.1309C336.076 60.1309 331.678 55.8899 331.678 49.0741C331.678 41.8038 337.592 34.0792 346.54 34.0792C353.062 34.0792 356.853 38.3202 356.853 43.7729C356.853 45.5904 356.398 47.5594 355.64 49.5285H338.199V49.5285ZM338.806 45.136H349.725C349.877 44.6816 350.028 44.0758 350.028 43.4699C350.028 41.3494 348.815 39.8348 345.934 39.8348C342.597 39.8348 340.019 41.9553 338.806 45.136Z" fill="#FFFAFB"/>
<path d="M357.915 34.5336H365.195L366.256 51.1945L376.266 34.5336H383.849L367.318 59.8279H360.797L357.915 34.5336Z" fill="#FFFAFB"/>
<path d="M42.1612 6.05853C20.1706 6.05853 2.2749 23.9312 2.2749 45.8933C2.2749 67.8554 20.1706 85.7281 42.1612 85.7281C64.1517 85.7281 82.0474 67.8554 82.0474 45.8933C82.0474 23.9312 64.1517 6.05853 42.1612 6.05853Z" stroke="#50E0B0" stroke-width="3" stroke-miterlimit="10"/>
<path d="M84.3219 25.9002C82.0471 23.6282 79.0139 22.4165 75.8291 22.4165C74.9191 22.4165 74.0092 22.568 73.2509 22.7194L66.1229 24.3855L42.0092 29.9897C40.4926 30.2926 39.2793 31.0499 38.2177 32.1101C37.7627 32.5645 37.3077 33.0189 37.0044 33.6248C35.9428 35.4423 35.4878 37.5628 36.0945 39.5318C36.5494 41.6523 37.9144 43.3184 39.7343 44.5301C41.5542 45.5903 43.8291 45.8933 45.8006 45.2874L72.3409 37.8657C71.5826 40.895 69.3077 50.2857 67.0329 59.5249C66.5779 61.494 66.8812 63.463 67.7911 65.2805C67.7911 65.2805 67.7911 65.432 67.9428 65.432C69.0044 67.2496 70.8243 68.4613 72.9475 68.9156C73.5542 69.0671 74.0092 69.0671 74.4641 69.0671C75.2224 69.0671 75.9807 68.9157 76.739 68.7642C79.3172 68.0069 81.2888 65.8864 81.8954 63.1601L87.5068 36.8055C88.4167 33.0189 87.2035 28.9294 84.3219 25.9002Z" fill="#FFFAFB"/>
<path d="M62.6354 66.6437C62.4837 66.0379 62.3321 65.432 62.0287 64.9776C61.4221 63.6145 60.3605 62.5542 59.1472 61.7969C57.3273 60.7367 55.2041 60.2823 53.2325 60.8881L21.3842 69.0671L35.3368 14.6919L36.5501 10.148C36.8534 8.93632 36.8534 7.72461 36.7017 6.51291C36.5501 5.60413 36.2467 4.84681 35.7918 3.93804C34.7302 2.12048 32.9103 0.757314 30.787 0.302925C28.6638 -0.151464 26.5406 0.151462 24.8723 1.2117C24.4174 1.51463 23.8107 1.96902 23.3558 2.42341C22.2941 3.33218 21.5358 4.69535 21.2325 6.05852L16.3795 26.809L10.4648 51.346L6.06665 69.8244C5.1567 73.7625 6.36997 78.0035 9.25149 80.8812C11.5264 83.1532 14.5595 84.3649 17.7444 84.3649C18.6543 84.3649 19.5643 84.2134 20.4742 84.062L56.8723 75.58C59.4505 74.9742 61.2704 73.3081 62.1804 71.0362C62.787 69.673 62.9387 68.1584 62.6354 66.6437Z" fill="#FFFAFB"/>
</svg>
