<svg width="32" height="32" viewBox="0 0 32 32" fill="none" xmlns="http://www.w3.org/2000/svg">
<path d="M10.8687 25.3178C10.8687 25.4428 10.725 25.5428 10.5437 25.5428C10.3375 25.5616 10.1938 25.4616 10.1938 25.3178C10.1938 25.1928 10.3375 25.0928 10.5188 25.0928C10.7063 25.0741 10.8687 25.1741 10.8687 25.3178ZM8.925 25.0366C8.88125 25.1616 9.00625 25.3053 9.19375 25.3428C9.35625 25.4053 9.54375 25.3428 9.58125 25.2178C9.61875 25.0928 9.5 24.9491 9.3125 24.8928C9.15 24.8491 8.96875 24.9116 8.925 25.0366ZM11.6875 24.9303C11.5062 24.9741 11.3812 25.0928 11.4 25.2366C11.4187 25.3616 11.5813 25.4428 11.7688 25.3991C11.95 25.3553 12.075 25.2366 12.0562 25.1116C12.0375 24.9928 11.8688 24.9116 11.6875 24.9303ZM15.8 0.980347C7.13125 0.980347 0.5 7.5616 0.5 16.2303C0.5 23.1616 4.8625 29.0928 11.0938 31.1803C11.8938 31.3241 12.175 30.8303 12.175 30.4241C12.175 30.0366 12.1562 27.8991 12.1562 26.5866C12.1562 26.5866 7.78125 27.5241 6.8625 24.7241C6.8625 24.7241 6.15 22.9053 5.125 22.4366C5.125 22.4366 3.69375 21.4553 5.225 21.4741C5.225 21.4741 6.78125 21.5991 7.6375 23.0866C9.00625 25.4991 11.3 24.8053 12.1938 24.3928C12.3375 23.3928 12.7438 22.6991 13.1938 22.2866C9.7 21.8991 6.175 21.3928 6.175 15.3803C6.175 13.6616 6.65 12.7991 7.65 11.6991C7.4875 11.2928 6.95625 9.61785 7.8125 7.45535C9.11875 7.0491 12.125 9.14285 12.125 9.14285C13.375 8.79285 14.7188 8.6116 16.05 8.6116C17.3813 8.6116 18.725 8.79285 19.975 9.14285C19.975 9.14285 22.9813 7.04285 24.2875 7.45535C25.1438 9.6241 24.6125 11.2928 24.45 11.6991C25.45 12.8053 26.0625 13.6678 26.0625 15.3803C26.0625 21.4116 22.3813 21.8928 18.8875 22.2866C19.4625 22.7803 19.95 23.7178 19.95 25.1866C19.95 27.2928 19.9312 29.8991 19.9312 30.4116C19.9312 30.8178 20.2188 31.3116 21.0125 31.1678C27.2625 29.0928 31.5 23.1616 31.5 16.2303C31.5 7.5616 24.4688 0.980347 15.8 0.980347ZM6.575 22.5366C6.49375 22.5991 6.5125 22.7428 6.61875 22.8616C6.71875 22.9616 6.8625 23.0053 6.94375 22.9241C7.025 22.8616 7.00625 22.7178 6.9 22.5991C6.8 22.4991 6.65625 22.4553 6.575 22.5366ZM5.9 22.0303C5.85625 22.1116 5.91875 22.2116 6.04375 22.2741C6.14375 22.3366 6.26875 22.3178 6.3125 22.2303C6.35625 22.1491 6.29375 22.0491 6.16875 21.9866C6.04375 21.9491 5.94375 21.9678 5.9 22.0303ZM7.925 24.2553C7.825 24.3366 7.8625 24.5241 8.00625 24.6428C8.15 24.7866 8.33125 24.8053 8.4125 24.7053C8.49375 24.6241 8.45625 24.4366 8.33125 24.3178C8.19375 24.1741 8.00625 24.1553 7.925 24.2553ZM7.2125 23.3366C7.1125 23.3991 7.1125 23.5616 7.2125 23.7053C7.3125 23.8491 7.48125 23.9116 7.5625 23.8491C7.6625 23.7678 7.6625 23.6053 7.5625 23.4616C7.475 23.3178 7.3125 23.2553 7.2125 23.3366Z" fill="#FFFAFB"/>
</svg>
