<svg width="29" height="29" viewBox="0 0 29 29" fill="none" xmlns="http://www.w3.org/2000/svg">
<path d="M26.5 0.480347H2.49375C1.39375 0.480347 0.5 1.3866 0.5 2.4991V26.4616C0.5 27.5741 1.39375 28.4804 2.49375 28.4804H26.5C27.6 28.4804 28.5 27.5741 28.5 26.4616V2.4991C28.5 1.3866 27.6 0.480347 26.5 0.480347ZM8.9625 24.4803H4.8125V11.1178H8.96875V24.4803H8.9625ZM6.8875 9.29285C5.55625 9.29285 4.48125 8.2116 4.48125 6.8866C4.48125 5.5616 5.55625 4.48035 6.8875 4.48035C8.2125 4.48035 9.29375 5.5616 9.29375 6.8866C9.29375 8.21785 8.21875 9.29285 6.8875 9.29285V9.29285ZM24.5187 24.4803H20.3687V17.9803C20.3687 16.4303 20.3375 14.4366 18.2125 14.4366C16.05 14.4366 15.7187 16.1241 15.7187 17.8678V24.4803H11.5687V11.1178H15.55V12.9428H15.6062C16.1625 11.8928 17.5187 10.7866 19.5375 10.7866C23.7375 10.7866 24.5187 13.5553 24.5187 17.1553V24.4803V24.4803Z" fill="#FFFAFB"/>
</svg>
