<svg width="33" height="27" viewBox="0 0 33 27" fill="none" xmlns="http://www.w3.org/2000/svg">
<path d="M29.2106 6.9626C29.2309 7.24685 29.2309 7.53116 29.2309 7.81541C29.2309 16.4854 22.632 26.4753 10.5711 26.4753C6.85531 26.4753 3.40356 25.3991 0.5 23.5312C1.02794 23.592 1.5355 23.6123 2.08375 23.6123C5.14969 23.6123 7.97206 22.5768 10.2259 20.8103C7.34262 20.7494 4.92637 18.8611 4.09387 16.2621C4.5 16.323 4.90606 16.3636 5.3325 16.3636C5.92131 16.3636 6.51019 16.2823 7.05837 16.1403C4.05331 15.5311 1.79944 12.8915 1.79944 9.70372V9.62254C2.6725 10.1098 3.68781 10.4144 4.76388 10.455C2.99738 9.27729 1.84006 7.26716 1.84006 4.99304C1.84006 3.77479 2.16488 2.65804 2.73344 1.68341C5.96187 5.6631 10.8147 8.26204 16.2563 8.54635C16.1548 8.05904 16.0938 7.55147 16.0938 7.04385C16.0938 3.4296 19.0177 0.485474 22.6522 0.485474C24.5405 0.485474 26.2461 1.27735 27.4441 2.55654C28.9263 2.27229 30.3476 1.72404 31.6065 0.972786C31.1191 2.49566 30.0836 3.77485 28.7232 4.58697C30.0431 4.44491 31.3222 4.07935 32.4999 3.57179C31.6066 4.87122 30.4898 6.02854 29.2106 6.9626V6.9626Z" fill="#FFFAFB"/>
</svg>
